<?xml version="1.0" encoding="UTF-8"?>
<svg version="1.1" xmlns="http://www.w3.org/2000/svg" width="623" height="401">
<path d="M0 0 C31.68 0 63.36 0 96 0 C104.88888889 16.66666667 104.88888889 16.66666667 107.69921875 23.828125 C109.25772239 27.62844017 110.95998928 31.35260587 112.66870117 35.08740234 C113.92150414 37.82826782 115.16050427 40.57485863 116.39453125 43.32421875 C120.54834468 52.54850243 124.77985799 61.69920539 129.37548828 70.7121582 C131.52818623 74.96381974 133.37945919 79.24763592 135.0703125 83.69921875 C136.42991161 87.06394092 138.08164832 90.26205759 139.75390625 93.48046875 C141.29785904 96.60225416 142.6348455 99.79620702 144 103 C145.03122572 105.25480442 146.07342722 107.5046127 147.125 109.75 C147.41922852 110.3797876 147.71345703 111.0095752 148.01660156 111.65844727 C149.77746081 115.420076 151.55783632 119.17190245 153.3515625 122.91796875 C153.74972168 123.75166992 154.14788086 124.58537109 154.55810547 125.44433594 C155.3328337 127.06488585 156.11035093 128.68410642 156.89111328 130.30175781 C158.91860841 134.54509957 160.71326256 138.79185191 162.3203125 143.21069336 C163.25485791 145.67092442 164.41334559 147.97776241 165.625 150.3125 C168.42424759 155.81252919 171.10662429 161.36088142 173.75 166.9375 C174.13881348 167.75452393 174.52762695 168.57154785 174.92822266 169.41333008 C176.73696238 173.23568423 178.49745796 177.04383878 180 181 C180.66 181 181.32 181 182 181 C182.22550537 180.49887695 182.45101074 179.99775391 182.68334961 179.48144531 C183.16300171 178.41555176 183.16300171 178.41555176 183.65234375 177.328125 C184.01239502 176.52793945 184.37244629 175.72775391 184.7434082 174.90332031 C185.54771695 173.11611372 186.35224609 171.32900629 187.15698242 169.54199219 C189.26340577 164.86359689 191.36638461 160.18372309 193.4609375 155.5 C193.85547119 154.61924805 194.25000488 153.73849609 194.65649414 152.83105469 C195.40706016 151.15523971 196.15632286 149.47884017 196.90405273 147.80175781 C198.8848001 143.38376809 200.96790528 139.04016886 203.15356445 134.72021484 C204.12410245 132.74778601 204.93031322 130.75073381 205.6875 128.6875 C208.68055044 121.02150519 212.38397075 113.66431788 215.93212891 106.24462891 C217.81523244 102.28640899 219.63802307 98.30080901 221.46484375 94.31640625 C222.63134477 91.79640786 223.81101766 89.28482137 225.00390625 86.77734375 C228.21158143 80.02929619 231.33761252 73.32232728 234.02734375 66.34765625 C235.12431727 63.69994104 236.38452735 61.17769028 237.6875 58.625 C240.43442462 53.24185806 242.92316321 47.77132379 245.375 42.25 C248.45628617 35.31386403 251.70924386 28.51020111 255.17773438 21.76049805 C258.13001836 15.93122823 260.48951578 9.9345094 262.7734375 3.81640625 C264 1 264 1 266 0 C267.33044785 -0.09134433 268.66535309 -0.12194259 269.99893188 -0.12025452 C270.83468246 -0.12162918 271.67043304 -0.12300385 272.5315094 -0.12442017 C273.90930824 -0.11902725 273.90930824 -0.11902725 275.31494141 -0.11352539 C276.28083694 -0.11367142 277.24673248 -0.11381744 278.24189758 -0.1139679 C281.44514181 -0.11326937 284.64832839 -0.10547978 287.8515625 -0.09765625 C290.06830819 -0.09579186 292.28505429 -0.09436805 294.50180054 -0.09336853 C300.34453463 -0.08954504 306.18724397 -0.07971617 312.02996826 -0.06866455 C317.98872544 -0.05844682 323.9474866 -0.05387013 329.90625 -0.04882812 C341.60417756 -0.03809377 353.30208672 -0.02101935 365 0 C364.40550945 3.79460584 363.74311749 7.04077984 362.14453125 10.5390625 C361.77231445 11.36100098 361.40009766 12.18293945 361.01660156 13.02978516 C360.42057129 14.3144165 360.42057129 14.3144165 359.8125 15.625 C359.40612305 16.51364746 358.99974609 17.40229492 358.58105469 18.31787109 C355.12230837 25.83920662 351.45459199 33.23435942 347.6640625 40.59375 C345.5757421 44.69445187 343.65487127 48.76645418 342 53.0625 C340.71719537 56.37813617 339.27532557 59.42024314 337.5 62.5 C335.80767687 65.44494901 334.40341991 68.32896657 333.1875 71.5 C329.23409932 81.76608885 324.22628237 91.6355672 319.25 101.4375 C316.88146135 106.12099045 314.83109421 110.80786004 312.9609375 115.70703125 C311.96246933 118.08955489 310.78870709 120.26233588 309.5 122.5 C307.30245745 126.32065148 305.6676385 130.18290827 304.08203125 134.2890625 C300.53108532 143.18565628 296.15598122 151.71656969 291.82788086 160.25268555 C289.60323308 164.67996552 287.68233893 169.14219816 285.92578125 173.77734375 C284.61855198 176.91579715 282.91436001 179.78118645 281.21875 182.72265625 C279.55618184 185.82931406 278.3371329 189.05554744 277.08056641 192.34277344 C276.07596903 194.81318416 274.96099457 197.14900972 273.7421875 199.51953125 C270.70730565 205.5231501 267.91914561 211.63153755 265.125 217.75 C261.35561177 225.97244001 257.49531605 234.11183257 253.3828125 242.16796875 C251.7013191 245.61170523 250.32665673 249.12931378 248.9609375 252.70703125 C247.63660807 255.86711815 245.92992365 258.75549808 244.21875 261.71875 C242.5291394 264.88135447 241.31406101 268.17860968 240.03515625 271.5234375 C238.99391218 274.01456481 237.78365042 276.2863148 236.4375 278.625 C234.57199877 281.8713103 233.17747455 285.06325631 231.92578125 288.6015625 C228.24590991 298.13506885 223.38786899 307.25432277 218.77514648 316.36035156 C216.60427795 320.68402904 214.71567843 325.03808163 212.99609375 329.5625 C210.97122559 334.51747149 208.43888863 339.23928939 206 344 C204.99814083 345.99906934 203.99763104 347.99881727 203 350 C197.04277884 350.34427697 191.08657087 350.62791883 185.12402344 350.86230469 C183.03006765 350.95459846 180.93683019 351.06482341 178.84472656 351.19238281 C175.75107134 351.37944104 172.65947096 351.50712481 169.5625 351.625 C168.59884521 351.69654297 167.63519043 351.76808594 166.64233398 351.84179688 C160.08049542 352.01339368 160.08049542 352.01339368 157.15625 349.27075195 C155.52330785 346.92032817 154.23804765 344.57936887 153 342 C152.43599487 340.86208008 152.43599487 340.86208008 151.8605957 339.70117188 C150.80609889 337.46783297 149.83001287 335.21498953 148.875 332.9375 C148.22844442 331.4249754 147.58001689 329.91324959 146.9296875 328.40234375 C146.45764893 327.30442505 146.45764893 327.30442505 145.97607422 326.18432617 C144.69928438 323.32703785 143.28792174 320.54707003 141.87060547 317.75756836 C140.82739816 315.65155337 139.95390784 313.51107937 139.125 311.3125 C136.04766399 303.47063989 132.38558624 295.89330449 128.75390625 288.296875 C121.66945296 273.46307026 121.66945296 273.46307026 118.94140625 266.35546875 C115.36345333 257.40316331 110.94096503 248.74864492 106.82788086 240.03051758 C104.80979282 235.74542936 102.83004121 231.44823569 100.9296875 227.109375 C99.78868473 224.52054518 98.61290932 221.94838136 97.4375 219.375 C96.11310312 216.46935352 94.81391847 213.56311292 93.5625 210.625 C90.71199017 204.01181719 87.6273846 197.5033974 84.59375 190.97265625 C79.14519972 179.21286856 73.85378862 167.38198389 68.5625 155.55078125 C68.16458252 154.66269775 67.76666504 153.77461426 67.35668945 152.85961914 C66.60115105 151.17326499 65.84698532 149.48629486 65.09448242 147.79858398 C63.11768133 143.38922061 61.05903408 139.04027903 58.86206055 134.73608398 C57.78534671 132.56771467 56.84824958 130.34609102 55.9140625 128.11328125 C54.16107492 124.0604339 52.2652412 120.07143875 50.40625 116.06640625 C49.4005197 113.87335545 48.43625257 111.66109986 47.5 109.4375 C46.12420486 106.28463613 44.62215846 103.25236501 43.0625 100.1875 C40.78039545 95.67387943 38.8117745 91.14593708 36.99609375 86.4296875 C35.95019689 83.87851948 34.75727926 81.45341424 33.5 79 C31.85024736 75.77571141 30.37649868 72.56245928 29.0625 69.1875 C26.01800973 61.38297336 22.36535377 53.85098399 18.75390625 46.296875 C11.60411641 31.32612668 11.60411641 31.32612668 9.03515625 24.52734375 C8.16860419 22.41164871 7.23880808 20.37404177 6.24609375 18.31640625 C5.92850098 17.65608398 5.6109082 16.99576172 5.28369141 16.31542969 C4.65506888 15.0189945 4.01851504 13.72636271 3.37255859 12.43847656 C1.22407633 8.00389529 0.73564576 5.14952029 0 0 Z " fill="#10100E" transform="translate(253,28)"/>
<path d="M0 0 C2.29034286 -0.09039588 4.58070592 -0.18028219 6.87109375 -0.26953125 C7.90347168 -0.34945313 8.93584961 -0.429375 9.99951172 -0.51171875 C12.95124197 -0.59524421 15.13518837 -0.53232487 17.93359375 0.41796875 C20.98383178 3.3677053 22.90048748 6.71987293 24.93359375 10.41796875 C25.83586679 11.84485917 26.7453988 13.26720047 27.6640625 14.68359375 C28.4859376 16.00994792 29.30500506 17.33804645 30.12109375 18.66796875 C32.98282583 23.30764705 35.90784206 27.88247346 38.93359375 32.41796875 C39.94104745 34.08014047 40.94147014 35.74660149 41.93359375 37.41796875 C46.26521102 44.3595225 50.76718737 51.16280964 55.4296875 57.88671875 C56.93359375 60.41796875 56.93359375 60.41796875 56.93359375 63.41796875 C57.59359375 63.41796875 58.25359375 63.41796875 58.93359375 63.41796875 C60.19737687 65.24242304 61.36732209 67.13203814 62.49609375 69.04296875 C63.2161351 70.24557867 63.93753611 71.44737535 64.66015625 72.6484375 C65.03430664 73.27282715 65.40845703 73.8972168 65.79394531 74.54052734 C67.59885155 77.51390545 69.48186849 80.43519437 71.37109375 83.35546875 C71.74709717 83.9386084 72.12310059 84.52174805 72.51049805 85.12255859 C74.37462435 88.01189478 76.24475911 90.89728951 78.1171875 93.78125 C82.44819364 100.46530724 86.69355367 107.19933543 90.87109375 113.98046875 C91.58048096 115.12370605 91.58048096 115.12370605 92.30419922 116.29003906 C94.52403642 119.91370357 96.53440487 123.38030941 97.93359375 127.41796875 C98.59359375 127.41796875 99.25359375 127.41796875 99.93359375 127.41796875 C100.21332031 127.95164062 100.49304688 128.4853125 100.78125 129.03515625 C103.62562784 134.32149192 106.81294576 139.19092394 110.3046875 144.0703125 C111.67467329 146.04480041 112.89784301 148.00483887 114.05859375 150.10546875 C115.42037424 152.51128094 116.74353242 154.590974 118.37109375 156.79296875 C120.31660132 159.44267844 121.9347459 162.15016476 123.49609375 165.04296875 C125.35493676 168.48678135 127.46604156 171.37465438 129.93359375 174.41796875 C130.93359375 176.41796875 131.93359375 178.41796875 132.93359375 180.41796875 C134.33701978 182.61781753 135.79762253 184.77368942 137.26171875 186.93359375 C141.33139187 192.98105194 145.20253892 199.15654429 148.93359375 205.41796875 C153.44244732 212.98043744 158.21028706 220.36097995 163.12109375 227.66796875 C165.22713109 230.8067744 167.28715552 233.924943 169.12109375 237.23046875 C170.82103493 240.22002048 172.68861392 242.90043533 174.71484375 245.66796875 C176.28200126 247.9182462 177.57982979 250.27863629 178.90625 252.67578125 C179.96499906 254.47122643 181.13198264 256.11765965 182.37109375 257.79296875 C184.28680837 260.40583946 185.8926384 263.06792595 187.43359375 265.91796875 C189.30866731 269.3850859 191.35371098 272.56684936 193.72265625 275.71484375 C195.26086494 277.87825985 196.58023321 280.1331961 197.93359375 282.41796875 C199.73946827 285.40117395 201.55553647 288.37814925 203.37109375 291.35546875 C203.84869141 292.14115234 204.32628906 292.92683594 204.81835938 293.73632812 C206.90014729 297.14886112 208.98603976 300.52334529 211.28125 303.796875 C212.93359375 306.41796875 212.93359375 306.41796875 212.93359375 309.41796875 C213.59359375 309.41796875 214.25359375 309.41796875 214.93359375 309.41796875 C216.1753185 311.22273045 217.32426991 313.09143573 218.43359375 314.98046875 C221.48726127 320.0981169 224.66667247 325.10024421 227.99609375 330.04296875 C231.04494835 334.58759821 234.08548484 339.13566407 237.05859375 343.73046875 C237.61804688 344.59285156 238.1775 345.45523437 238.75390625 346.34375 C239.93359375 348.41796875 239.93359375 348.41796875 239.93359375 350.41796875 C225.07706126 351.19640468 210.20190095 351.60895321 195.32617188 351.76000977 C193.52607519 351.78194235 191.72606374 351.81267271 189.92626953 351.85229492 C187.36973997 351.9063327 184.81483608 351.92772919 182.2578125 351.94140625 C181.10770943 351.97534988 181.10770943 351.97534988 179.93437195 352.00997925 C175.89098608 351.99414253 174.16156252 351.60493077 170.99243164 349.00585938 C169.29177113 346.86818579 167.91023029 344.96703619 166.68359375 342.54296875 C161.53219828 332.83955401 155.83560543 323.47493327 149.421875 314.5546875 C148.09861419 312.65488787 146.92965319 310.75373539 145.80859375 308.73046875 C144.41473679 306.26798813 143.03531393 304.11722793 141.37109375 301.85546875 C139.17305659 298.84727892 137.60251319 295.75580763 135.93359375 292.41796875 C133.66129597 288.71210091 131.29403545 285.06813632 128.93359375 281.41796875 C125.64023709 276.28861934 122.35439689 271.16209423 119.24609375 265.91796875 C113.1284057 255.64548721 106.64307068 245.58247414 100.13720703 235.55249023 C96.93859597 230.62044275 93.89439183 225.66016452 91.1015625 220.484375 C89.40477888 217.48237321 87.47499846 214.65633609 85.5390625 211.8046875 C80.19567673 203.86111401 75.16223378 195.69212686 70.1640625 187.52734375 C63.26932032 176.26729144 56.17165964 165.16086251 48.7578125 154.234375 C47.08004786 151.64407884 45.55319008 148.99983973 44.03833008 146.31225586 C41.969001 142.7639853 39.68737668 139.35084248 37.43359375 135.91796875 C32.16094668 127.88687961 32.16094668 127.88687961 29.85546875 123.8046875 C27.90689842 120.37092637 25.83013922 117.0418615 23.68359375 113.73046875 C23.2959082 113.12887939 22.90822266 112.52729004 22.50878906 111.9074707 C19.94561867 107.94227322 17.32573254 104.01863642 14.68359375 100.10546875 C11.91535141 95.98325441 9.42947407 91.80941533 7.08203125 87.4375 C5.64836295 84.91638942 4.0021482 82.61836177 2.2421875 80.31640625 C0.70581967 78.08752635 -0.58894107 75.74556534 -1.91772461 73.38916016 C-4.00090641 69.81432278 -6.29619811 66.37586071 -8.56640625 62.91796875 C-18.06640625 48.4479415 -18.06640625 48.4479415 -18.06640625 45.41796875 C-18.72640625 45.41796875 -19.38640625 45.41796875 -20.06640625 45.41796875 C-21.23974609 43.8449707 -21.23974609 43.8449707 -22.52734375 41.65625 C-22.99914062 40.86669922 -23.4709375 40.07714844 -23.95703125 39.26367188 C-24.446875 38.42771484 -24.93671875 37.59175781 -25.44140625 36.73046875 C-28.41023391 31.70171922 -31.31671813 26.91593167 -35.06640625 22.41796875 C-36.0087787 20.79318867 -36.94832909 19.16639055 -37.8515625 17.51953125 C-39.96247366 13.86785858 -42.34123346 10.38272446 -44.67578125 6.87109375 C-46.06640625 4.41796875 -46.06640625 4.41796875 -46.06640625 1.41796875 C-43.60027927 1.34436471 -41.13413622 1.27144724 -38.66796875 1.19921875 C-37.89420395 1.1765242 -37.12043915 1.15382965 -36.32322693 1.13044739 C-32.03919823 1.00703498 -27.75519048 0.89378394 -23.47045898 0.79760742 C-22.60540237 0.77813553 -21.74034576 0.75866364 -20.84907532 0.73860168 C-19.09671169 0.69923521 -17.34434142 0.66016389 -15.59196472 0.62138367 C-10.38716302 0.49840186 -5.19839811 0.28448945 0 0 Z " fill="#121210" transform="translate(154.06640625,27.58203125)"/>
<path d="M0 0 C8.31880455 -0.32557828 16.63491743 -0.57368876 24.95853329 -0.72537041 C28.82467244 -0.79820842 32.6864319 -0.89679199 36.55004883 -1.05615234 C61.55395951 -2.06136995 61.55395951 -2.06136995 67.25653076 1.349823 C70.96826618 5.00352308 72.41550001 9.13152655 74 14 C75.59971956 16.43921151 75.59971956 16.43921151 77.25 18.3125 C79.86140162 21.67413856 81.84259108 25.22517023 83.84765625 28.97265625 C85.30816408 31.54215986 87.13428052 33.71298903 89 36 C89.98933989 37.72336627 90.97755048 39.44759149 91.9375 41.1875 C93.00631295 43.01076915 94.18001748 44.6773986 95.4375 46.375 C97.38300757 49.02470969 99.00115215 51.73219601 100.5625 54.625 C102.42447192 58.06964806 104.5211743 60.96143947 107 64 C107.95006814 65.63804851 108.89738581 67.27792657 109.81640625 68.93359375 C114.21601608 76.61476075 119.25943023 83.93699446 124.203125 91.2734375 C125.8765432 93.81266772 127.45166016 96.38314438 129 99 C133.25443072 106.05680573 137.6097855 112.94819451 142.40625 119.65234375 C144.45693068 122.67307681 146.16217388 125.83051784 147.8828125 129.046875 C149.03707127 131.18374798 149.03707127 131.18374798 151.0625 133.5625 C152.72412889 135.65293635 153.6941743 137.30868856 154.8125 139.6875 C156.81783286 143.86982845 159.37874361 147.47369836 162.078125 151.234375 C164.90673059 155.30480744 167.45160137 159.53618202 170.02734375 163.76953125 C172.95050133 168.55656356 175.97776039 173.27518648 179 178 C180.22934562 179.93738646 181.45851377 181.87488554 182.6875 183.8125 C184.49029917 186.64949422 186.31040637 189.46117517 188.1875 192.25 C189.46432458 194.18725109 190.66270224 196.17733869 191.80078125 198.19921875 C194.02298601 202.11124104 196.48248965 205.8358218 199 209.5625 C199.42539063 210.19607422 199.85078125 210.82964844 200.2890625 211.48242188 C200.70929688 212.10826172 201.12953125 212.73410156 201.5625 213.37890625 C201.96984375 213.98750488 202.3771875 214.59610352 202.796875 215.22314453 C203.58631058 216.3890358 204.38808345 217.54668736 205.203125 218.69482422 C208 222.68455656 208 222.68455656 208 226 C208.66 226 209.32 226 210 226 C211.43194595 228.03753976 212.72889327 230.05286967 214 232.1875 C214.35578125 232.76564453 214.7115625 233.34378906 215.078125 233.93945312 C217.05252068 237.19941614 218.70395406 240.41562296 220 244 C220.66 244 221.32 244 222 244 C223.18920898 245.68066406 223.18920898 245.68066406 224.49609375 248.015625 C224.97240234 248.85480469 225.44871094 249.69398438 225.93945312 250.55859375 C226.43380859 251.44675781 226.92816406 252.33492187 227.4375 253.25 C228.41302543 254.98569177 229.39081704 256.7201122 230.37109375 258.453125 C230.80349365 259.22817383 231.23589355 260.00322266 231.68139648 260.80175781 C232.99426434 262.99043808 234.46057601 264.96691561 236 267 C236.97814491 268.6924748 237.95471189 270.38597503 238.91113281 272.09082031 C240.80443746 275.41047107 242.84399543 278.63840296 244.875 281.875 C245.3169873 282.58116455 245.75897461 283.2873291 246.21435547 284.01489258 C248.91185189 288.31022812 251.67848215 292.54811226 254.51953125 296.75 C256.3460449 299.52591521 258.07838848 302.35296015 259.8125 305.1875 C265.44972471 314.40033581 271.28780578 323.47311268 277.3125 332.4375 C284.927191 343.8443678 284.927191 343.8443678 286 350 C277.66382612 350.30210937 269.32995993 350.53261205 260.98965454 350.67355824 C257.11596541 350.74123454 253.24603592 350.83286814 249.37451172 350.98071289 C245.63292077 351.1226904 241.89492587 351.19982374 238.15084839 351.23340416 C236.72784756 351.25730583 235.30503006 351.30399678 233.88357544 351.37449074 C229.30998804 351.59214536 225.33626416 351.53318146 221 350 C217.32374633 346.0374244 215.29710287 341.89743457 213 337 C211.8406763 335.10744886 210.65777688 333.22883537 209.4375 331.375 C208.87160156 330.48941406 208.30570313 329.60382813 207.72265625 328.69140625 C207.15417969 327.80324219 206.58570313 326.91507812 206 326 C204.79099625 324.10459413 203.58266062 322.20876193 202.375 320.3125 C201.84648437 319.48363281 201.31796875 318.65476562 200.7734375 317.80078125 C199.38206448 315.60339259 198.00294024 313.39960748 196.62890625 311.19140625 C193.99256105 306.96798521 191.28084242 302.79592091 188.5625 298.625 C185.63754178 294.12327622 182.72627501 289.62592436 180 285 C176.96842466 279.86364521 173.70963591 274.88273115 170.45800781 269.88427734 C166.84562921 264.32461991 163.28507286 258.73410083 159.75 253.125 C159.23945068 252.31506592 158.72890137 251.50513184 158.20288086 250.6706543 C157.22965941 249.12623906 156.25658824 247.58172912 155.28369141 246.03710938 C150.24866444 238.04694867 145.13963647 230.10619368 139.99389648 222.18701172 C136.08410754 216.16092801 132.28265579 210.07125745 128.5 203.96484375 C127.88125 202.96807617 127.88125 202.96807617 127.25 201.95117188 C126.41491561 200.60590311 125.5815882 199.25954214 124.75 197.91210938 C122.69537947 194.6086648 120.58914168 191.37807495 118.3125 188.22265625 C116.70373862 185.98071682 115.32218745 183.89311699 114 181.5 C112.63810191 179.03979701 111.16124148 176.76901275 109.5 174.5 C107.5041691 171.76631647 105.79668606 168.95634817 104.1484375 165.99609375 C100.34914898 159.39256847 96.06004372 153.0699021 91.8125 146.75 C89.76208619 143.69009128 87.73374386 140.65385119 85.9375 137.4375 C82.08784926 130.60747449 77.79748928 124.07129045 73.25 117.6875 C70.80007759 114.2326205 68.8633397 110.80769418 67 107 C65.59757292 104.80300897 64.13910861 102.64905214 62.67578125 100.4921875 C57.28191038 92.47053339 52.17569958 84.23215048 47.16015625 75.96875 C43.52116338 69.98990567 39.77779343 64.16204849 35.71875 58.4609375 C31.64490351 52.62793002 27.91144843 46.57254952 24.3125 40.4375 C20.87547173 34.64391847 17.09038267 29.08309075 13.3137207 23.50756836 C11.03057239 20.12144628 8.8074975 16.74424983 6.8046875 13.18359375 C5.39788097 10.70188959 3.98447985 8.49839981 2.25 6.25 C0 3 0 3 0 0 Z " fill="#121210" transform="translate(3,29)"/>
<path d="M0 0 C1.37562854 1.28965176 2.70766393 2.62689293 4 4 C4 4.66 4 5.32 4 6 C-10.92171729 6.78185141 -25.831557 7.12656814 -40.7722168 7.17724609 C-42.59270807 7.18408943 -44.41318967 7.19435076 -46.23364258 7.20800781 C-48.8121051 7.22584372 -51.39023304 7.23016633 -53.96875 7.23046875 C-54.75096924 7.23761398 -55.53318848 7.24475922 -56.33911133 7.25212097 C-61.77086197 7.22913803 -61.77086197 7.22913803 -64 5 C-57.01167364 4.82981377 -50.02315828 4.67032287 -43.03442383 4.51782227 C-40.66327553 4.46487258 -38.29217804 4.40958859 -35.92114258 4.35180664 C-23.22758706 4.04403542 -10.65078438 3.74056865 2 5 C1.01 2.525 1.01 2.525 0 0 Z " fill="#6F6F6D" transform="translate(390,372)"/>
<path d="M0 0 C19.47 0 38.94 0 59 0 C59 0.33 59 0.66 59 1 C54.78661704 1.14479773 50.57315868 1.28709669 46.35961914 1.42724609 C44.9312115 1.4750898 43.50282515 1.52357402 42.07446289 1.57275391 C35.36775892 1.8032895 28.66896847 2.03270442 21.95703125 1.98828125 C16.56309374 1.95692997 11.33044762 2.48704169 5.96875 3.07421875 C3 3 3 3 0 0 Z " fill="#020201" transform="translate(8,30)"/>
<path d="M0 0 C2.875 -0.125 2.875 -0.125 6 0 C9.29679683 3.29679683 10 5.28312744 10 10 C9.34 10 8.68 10 8 10 C8.33 11.65 8.66 13.3 9 15 C0 4.33333333 0 4.33333333 0 0 Z " fill="#0B0B09" transform="translate(108,30)"/>
<path d="M0 0 C4.95 0 9.9 0 15 0 C11 3 11 3 8.875 3.6875 C5.69358235 5.91449235 5.71554894 9.30299714 5 13 C2.94876752 10.94876752 2.35852882 9.72994937 1.375 7.0625 C0.98441406 6.02802734 0.98441406 6.02802734 0.5859375 4.97265625 C0 3 0 3 0 0 Z " fill="#1B1B19" transform="translate(253,29)"/>
<path d="M0 0 C1.2051933 3.61557991 0.74896968 4.14251394 -0.87109375 7.44921875 C-1.28037109 8.29677734 -1.68964844 9.14433594 -2.11132812 10.01757812 C-2.54896484 10.89865234 -2.98660156 11.77972656 -3.4375 12.6875 C-3.87126953 13.58017578 -4.30503906 14.47285156 -4.75195312 15.39257812 C-5.82591129 17.59950314 -6.908839 19.80154313 -8 22 C-8.33 22 -8.66 22 -9 22 C-9.25 16.375 -9.25 16.375 -7 13 C-6.34 13 -5.68 13 -5 13 C-5.185625 12.21625 -5.37125 11.4325 -5.5625 10.625 C-6 8 -6 8 -5 6 C-4.34 6 -3.68 6 -3 6 C-2.67 4.68 -2.34 3.36 -2 2 C-1.34 2 -0.68 2 0 2 C0 1.34 0 0.68 0 0 Z " fill="#4F4F4D" transform="translate(524,228)"/>
<path d="M0 0 C0.33 1.32 0.66 2.64 1 4 C1.598125 4.04125 2.19625 4.0825 2.8125 4.125 C5 5 5 5 6.75 7.875 C8 11 8 11 8 14 C7.01 15.485 7.01 15.485 6 17 C4.80015203 14.73495035 3.61505231 12.46410112 2.4375 10.1875 C2.09525391 9.54490234 1.75300781 8.90230469 1.40039062 8.24023438 C0.5234977 6.53073605 -0.24515617 4.76678706 -1 3 C-0.67 2.01 -0.34 1.02 0 0 Z " fill="#353534" transform="translate(304,140)"/>
<path d="M0 0 C3.48331435 3.01887244 4.79157144 5.56909529 6 10 C4.35 10.66 2.7 11.32 1 12 C1 11.34 1 10.68 1 10 C-0.29233607 8.62689293 -1.62437146 7.28965176 -3 6 C-2.01 5.67 -1.02 5.34 0 5 C0 3.35 0 1.7 0 0 Z " fill="#3A3A39" transform="translate(179,204)"/>
<path d="M0 0 C2 2 2 2 2.9375 4 C3.96786859 6.32131409 3.96786859 6.32131409 7 8 C6.34 9.65 5.68 11.3 5 13 C5.66 13.33 6.32 13.66 7 14 C6.67 15.32 6.34 16.64 6 18 C4.98819502 15.94326547 3.99098523 13.87934652 3 11.8125 C2.443125 10.66394531 1.88625 9.51539063 1.3125 8.33203125 C0.08236325 5.20909481 -0.29804612 3.29713518 0 0 Z " fill="#565654" transform="translate(365,274)"/>
<path d="M0 0 C0.66 0 1.32 0 2 0 C3.76171875 2.5546875 3.76171875 2.5546875 5.6875 5.875 C6.33074219 6.96554687 6.97398437 8.05609375 7.63671875 9.1796875 C8.08660156 10.11039062 8.53648437 11.04109375 9 12 C8.67 12.66 8.34 13.32 8 14 C4.91910327 11.22719294 3.31224548 8.93673644 2 5 C0.68 5.33 -0.64 5.66 -2 6 C-2.33 5.34 -2.66 4.68 -3 4 C-2.34 4 -1.68 4 -1 4 C-0.67 2.68 -0.34 1.36 0 0 Z " fill="#6A6A69" transform="translate(223,273)"/>
<path d="M0 0 C0.99 0 1.98 0 3 0 C3 0.66 3 1.32 3 2 C3.66 2 4.32 2 5 2 C5 3.32 5 4.64 5 6 C5.66 6 6.32 6 7 6 C10.27037599 9.27037599 10.56856013 12.5130254 11 17 C7.99378503 13.41515516 5.56997115 9.74744951 3.25 5.6875 C2.63640625 4.61886719 2.0228125 3.55023438 1.390625 2.44921875 C0.93171875 1.64097656 0.4728125 0.83273438 0 0 Z " fill="#535352" transform="translate(124,56)"/>
<path d="M0 0 C2.31 0.33 4.62 0.66 7 1 C7.95024979 4.69541586 7.95024979 7.30458414 7 11 C4.59424393 8.81482901 3.20464419 6.74080329 1.8125 3.8125 C1.46832031 3.09707031 1.12414062 2.38164063 0.76953125 1.64453125 C0.51558594 1.10183594 0.26164063 0.55914062 0 0 Z " fill="#3C3C3B" transform="translate(151,98)"/>
<path d="M0 0 C3.53586014 3.17320782 5.58578031 5.16743695 6 10 C6.66 10 7.32 10 8 10 C8.66 11.65 9.32 13.3 10 15 C7.5625 14.1875 7.5625 14.1875 5 13 C4.67 12.01 4.34 11.02 4 10 C4.33 9.34 4.66 8.68 5 8 C4.01 7.67 3.02 7.34 2 7 C0.8125 3.4375 0.8125 3.4375 0 0 Z " fill="#616160" transform="translate(205,81)"/>
<path d="M0 0 C3.2626876 3.08632611 6.02235218 5.93483504 8 10 C7.67 10.66 7.34 11.32 7 12 C4.0625 10.5 4.0625 10.5 1 8 C0.16104266 5.23513429 0.09752026 2.92560787 0 0 Z " fill="#5D5D5B" transform="translate(112,99)"/>
<path d="M0 0 C0.12375 0.639375 0.2475 1.27875 0.375 1.9375 C0.684375 2.9584375 0.684375 2.9584375 1 4 C1.66 4.33 2.32 4.66 3 5 C2.401875 5.33 1.80375 5.66 1.1875 6 C-1.89928188 8.82220057 -2.76988723 12.07668579 -4 16 C-4.66 16 -5.32 16 -6 16 C-4.43551329 10.3856009 -2.83604813 5.13189662 0 0 Z " fill="#565655" transform="translate(443,191)"/>
<path d="M0 0 C0.66 0 1.32 0 2 0 C2 0.66 2 1.32 2 2 C3.32 2.33 4.64 2.66 6 3 C6.0825 4.11375 6.165 5.2275 6.25 6.375 C6.57873787 10.05753944 6.57873787 10.05753944 9.0625 11.4375 C9.701875 11.623125 10.34125 11.80875 11 12 C10.01 13.485 10.01 13.485 9 15 C7.49726004 12.68923915 5.99770448 10.37652089 4.5 8.0625 C4.07074219 7.40314453 3.64148438 6.74378906 3.19921875 6.06445312 C0 1.11328125 0 1.11328125 0 0 Z " fill="#60605F" transform="translate(15,49)"/>
<path d="M0 0 C0.66 0.66 1.32 1.32 2 2 C1.67 2.66 1.34 3.32 1 4 C1.66 4 2.32 4 3 4 C3.33 4.99 3.66 5.98 4 7 C4.66 6.67 5.32 6.34 6 6 C6.625 7.8125 6.625 7.8125 7 10 C6.01 11.485 6.01 11.485 5 13 C2.69 9.37 0.38 5.74 -2 2 C-1.34 1.34 -0.68 0.68 0 0 Z " fill="#636362" transform="translate(209,350)"/>
<path d="M0 0 C3.39417765 3.12621626 5.6062718 5.56541027 7 10 C2.125 8.25 2.125 8.25 1 6 C0.01 6 -0.98 6 -2 6 C-1.34 4.02 -0.68 2.04 0 0 Z " fill="#5A5A58" transform="translate(332,281)"/>
<path d="M0 0 C3.25524265 3.02272532 5.61820737 6.25718301 8 10 C7.67 10.66 7.34 11.32 7 12 C5.68 11.67 4.36 11.34 3 11 C2.67 8.69 2.34 6.38 2 4 C1.01 4 0.02 4 -1 4 C-0.67 2.68 -0.34 1.36 0 0 Z " fill="#626261" transform="translate(257,327)"/>
<path d="M0 0 C0.99 0 1.98 0 3 0 C6.57541686 4.07142845 8.59422121 8.58961609 9 14 C5.25876024 9.7045025 2.65848126 5.00099548 0 0 Z " fill="#696968" transform="translate(125,222)"/>
<path d="M0 0 C0.2475 0.639375 0.495 1.27875 0.75 1.9375 C1.81562433 4.18741541 1.81562433 4.18741541 4.125 4.75 C4.74375 4.8325 5.3625 4.915 6 5 C6.625 7.3125 6.625 7.3125 7 10 C6.01 11.485 6.01 11.485 5 13 C4.15930585 11.39967863 3.32768495 9.79458829 2.5 8.1875 C1.80390625 6.84751953 1.80390625 6.84751953 1.09375 5.48046875 C0 3 0 3 0 0 Z " fill="#666665" transform="translate(311,158)"/>
<path d="M0 0 C3.53586014 3.17320782 5.58578031 5.16743695 6 10 C5.01 10.495 5.01 10.495 4 11 C3.731875 10.401875 3.46375 9.80375 3.1875 9.1875 C2.1305255 6.94489213 2.1305255 6.94489213 0.3125 5.5 C-0.120625 5.005 -0.55375 4.51 -1 4 C-0.6875 1.8125 -0.6875 1.8125 0 0 Z " fill="#666664" transform="translate(141,144)"/>
<path d="M0 0 C3.39417765 3.12621626 5.6062718 5.56541027 7 10 C6.01 10 5.02 10 4 10 C3.67 9.01 3.34 8.02 3 7 C2.01 7.33 1.02 7.66 0 8 C0 6.68 0 5.36 0 4 C-0.33 3.34 -0.66 2.68 -1 2 C-0.67 1.34 -0.34 0.68 0 0 Z " fill="#62625F" transform="translate(94,71)"/>
<path d="M0 0 C0.66 0 1.32 0 2 0 C3.625 2.5 3.625 2.5 5 5 C5.99 4.67 6.98 4.34 8 4 C8.93065133 6.60582371 9.14917407 7.64198224 8.0625 10.25 C7.711875 10.8275 7.36125 11.405 7 12 C4.31600076 8.11282869 2.03751441 4.27878027 0 0 Z " fill="#5F5F5D" transform="translate(303,340)"/>
<path d="M0 0 C2.375 0.5625 2.375 0.5625 5 2 C6.375 5.5 6.375 5.5 7 9 C6.67 9.66 6.34 10.32 6 11 C4.9944239 9.54550599 3.99569565 8.08627557 3 6.625 C2.443125 5.81289063 1.88625 5.00078125 1.3125 4.1640625 C0 2 0 2 0 0 Z " fill="#5E5E5B" transform="translate(313,355)"/>
<path d="M0 0 C3.00617269 3.00617269 2.59585316 5.82381598 3 10 C-2.57142857 4.85714286 -2.57142857 4.85714286 -3 1 C-2.01 0.67 -1.02 0.34 0 0 Z " fill="#50504E" transform="translate(122,211)"/>
<path d="M0 0 C0.93423645 3.01031744 1.04449911 3.86650268 0 7 C0.66 7 1.32 7 2 7 C1.67 7.99 1.34 8.98 1 10 C-0.9375 10.5625 -0.9375 10.5625 -3 11 C-3.66 11.66 -4.32 12.32 -5 13 C-4.39254603 8.14036821 -2.27241033 4.2594482 0 0 Z " fill="#727271" transform="translate(482,106)"/>
<path d="M0 0 C2.40072955 2.88087546 4.47291037 5.56404834 6 9 C5.236875 8.649375 4.47375 8.29875 3.6875 7.9375 C0.95240621 6.67639116 0.95240621 6.67639116 -2 8 C-1.34 5.36 -0.68 2.72 0 0 Z " fill="#484845" transform="translate(266,341)"/>
<path d="M0 0 C1.32 0.99 2.64 1.98 4 3 C3.01 4.485 3.01 4.485 2 6 C-1.125 6.1875 -1.125 6.1875 -4 6 C-3.67 4.68 -3.34 3.36 -3 2 C-2.34 2 -1.68 2 -1 2 C-0.67 1.34 -0.34 0.68 0 0 Z " fill="#555552" transform="translate(436,207)"/>
<path d="M0 0 C0.99 0.66 1.98 1.32 3 2 C3.29296875 4.3828125 3.29296875 4.3828125 3.1875 7.125 C3.16042969 8.03507813 3.13335937 8.94515625 3.10546875 9.8828125 C3.07066406 10.58148438 3.03585937 11.28015625 3 12 C1 11 1 11 0.1484375 8.93359375 C-0.10679687 8.10988281 -0.36203125 7.28617188 -0.625 6.4375 C-0.88539063 5.61121094 -1.14578125 4.78492188 -1.4140625 3.93359375 C-1.60742188 3.29550781 -1.80078125 2.65742188 -2 2 C-1.34 2 -0.68 2 0 2 C0 1.34 0 0.68 0 0 Z " fill="#535352" transform="translate(348,234)"/>
<path d="M0 0 C0.99 0.99 1.98 1.98 3 3 C-0.625 8.875 -0.625 8.875 -4 10 C-3.52449439 8.51965236 -3.04448784 7.04074979 -2.5625 5.5625 C-2.29566406 4.73878906 -2.02882813 3.91507812 -1.75390625 3.06640625 C-1 1 -1 1 0 0 Z " fill="#70706F" transform="translate(489,91)"/>
<path d="M0 0 C1.65 1.65 3.3 3.3 5 5 C4.67 5.99 4.34 6.98 4 8 C5.32 8.33 6.64 8.66 8 9 C7.34 10.32 6.68 11.64 6 13 C3.33753193 11.66876597 3.05398348 10.3235622 1.875 7.625 C1.52179688 6.83351563 1.16859375 6.04203125 0.8046875 5.2265625 C0 3 0 3 0 0 Z " fill="#7F7F7C" transform="translate(275,79)"/>
<path d="M0 0 C0.33 1.32 0.66 2.64 1 4 C0.34 4 -0.32 4 -1 4 C-0.67 5.65 -0.34 7.3 0 9 C-2.25245881 6.31158141 -3.88213958 4.35358125 -5 1 C-3.35 0.67 -1.7 0.34 0 0 Z " fill="#474745" transform="translate(117,36)"/>
<path d="M0 0 C0.99 0 1.98 0 3 0 C5.68099266 3.50591348 6.49516338 6.65840504 7 11 C4.08156555 8.373409 2.05482685 5.33023661 0 2 C0 1.34 0 0.68 0 0 Z " fill="#5C5C5B" transform="translate(215,363)"/>
<path d="M0 0 C2.50037734 2.17424117 3.43628586 3.73045798 4 7 C1.69 6.34 -0.62 5.68 -3 5 C-2.34 3.68 -1.68 2.36 -1 1 C-0.67 1.33 -0.34 1.66 0 2 C0 1.34 0 0.68 0 0 Z " fill="#474745" transform="translate(199,71)"/>
<path d="M0 0 C3.08089673 2.77280706 4.68775452 5.06326356 6 9 C4.68 8.67 3.36 8.34 2 8 C2 7.34 2 6.68 2 6 C1.01 5.67 0.02 5.34 -1 5 C-0.67 3.35 -0.34 1.7 0 0 Z " fill="#666664" transform="translate(324,268)"/>
<path d="M0 0 C2.00130916 2.54712074 3.85727656 4.9527375 5 8 C4.625 10.25 4.625 10.25 4 12 C3.67 12 3.34 12 3 12 C3 10.35 3 8.7 3 7 C2.01 7 1.02 7 0 7 C0.33 5.68 0.66 4.36 1 3 C0.34 3 -0.32 3 -1 3 C-0.67 2.01 -0.34 1.02 0 0 Z " fill="#676765" transform="translate(389,116)"/>
<path d="M0 0 C3 3.75 3 3.75 3 6 C3.66 6.33 4.32 6.66 5 7 C2.23735711 7.59732819 -0.16032769 8 -3 8 C-1.125 2.25 -1.125 2.25 0 0 Z " fill="#5C5C59" transform="translate(498,71)"/>
<path d="M0 0 C3.16115776 1.36983503 3.9927092 1.9890638 6 5 C5.625 7.6875 5.625 7.6875 5 10 C2.35534962 6.8745041 1.15585285 3.91211733 0 0 Z " fill="#6C6C69" transform="translate(265,58)"/>
<path d="M0 0 C3.08089673 2.77280706 4.68775452 5.06326356 6 9 C4.68 8.67 3.36 8.34 2 8 C1.67 8.66 1.34 9.32 1 10 C1 9.01 1 8.02 1 7 C0.68330179 4.66435067 0.35179197 2.3306218 0 0 Z " fill="#6B6B69" transform="translate(235,292)"/>
<path d="M0 0 C2.56616632 3.84924948 2.55097676 6.4349304 3 11 C1 9.375 1 9.375 -1 7 C-1.3125 3.8125 -1.3125 3.8125 -1 1 C-0.67 0.67 -0.34 0.34 0 0 Z " fill="#515150" transform="translate(276,290)"/>
<path d="M0 0 C2.32947183 2.11770166 3.88750845 4.03335588 5 7 C4.67 7.99 4.34 8.98 4 10 C3.34 8.35 2.68 6.7 2 5 C1.34 5 0.68 5 0 5 C-1.625 3 -1.625 3 -3 1 C-2.01 0.67 -1.02 0.34 0 0 Z " fill="#7C7C7A" transform="translate(398,136)"/>
<path d="M0 0 C1.98 0.495 1.98 0.495 4 1 C4 1.99 4 2.98 4 4 C3.34 4 2.68 4 2 4 C2 4.66 2 5.32 2 6 C1.01 5.67 0.02 5.34 -1 5 C-0.67 3.35 -0.34 1.7 0 0 Z " fill="#0B0B09" transform="translate(40,81)"/>
<path d="M0 0 C2.475 0.99 2.475 0.99 5 2 C4.67 4.31 4.34 6.62 4 9 C1.3144406 6.3144406 0.93950026 3.62378672 0 0 Z " fill="#585857" transform="translate(254,33)"/>
<path d="M0 0 C3 3.75 3 3.75 3 6 C1.02 6.33 -0.96 6.66 -3 7 C-1.125 1.125 -1.125 1.125 0 0 Z " fill="#363635" transform="translate(301,231)"/>
<path d="M0 0 C2.08954032 4.17908064 2.16552619 4.80410573 1 9 C-0.32 9 -1.64 9 -3 9 C-2.01 6.03 -1.02 3.06 0 0 Z " fill="#4D4D4B" transform="translate(468,136)"/>
<path d="M0 0 C1.98 0 3.96 0 6 0 C5.25 4.75 5.25 4.75 3 7 C2.87625 6.360625 2.7525 5.72125 2.625 5.0625 C2.315625 4.0415625 2.315625 4.0415625 2 3 C1.34 2.67 0.68 2.34 0 2 C0 1.34 0 0.68 0 0 Z " fill="#323231" transform="translate(612,29)"/>
<path d="M0 0 C1.875 0.3125 1.875 0.3125 4 1 C6.1519437 4.22791555 6.20086443 5.28400809 6 9 C3.59927045 6.11912454 1.52708963 3.43595166 0 0 Z " fill="#5C5C58" transform="translate(236,233)"/>
<path d="M0 0 C0.33 1.32 0.66 2.64 1 4 C2.32 4.33 3.64 4.66 5 5 C5 5.99 5 6.98 5 8 C4.67 7.67 4.34 7.34 4 7 C3.34 7.66 2.68 8.32 2 9 C0.4375 6.1875 0.4375 6.1875 -1 3 C-0.67 2.01 -0.34 1.02 0 0 Z " fill="#565655" transform="translate(304,140)"/>
<path d="M0 0 C0.99 0.66 1.98 1.32 3 2 C1.25 6.875 1.25 6.875 -1 8 C-1.33 6.02 -1.66 4.04 -2 2 C-1.34 2 -0.68 2 0 2 C0 1.34 0 0.68 0 0 Z " fill="#0B0B09" transform="translate(68,121)"/>
<path d="M0 0 C1.74627478 2.61941217 2.38722388 4.03824877 3 7 C2.34 7 1.68 7 1 7 C0.67 7.66 0.34 8.32 0 9 C-0.99 8.67 -1.98 8.34 -3 8 C-2.67 7.34 -2.34 6.68 -2 6 C-1.34 6 -0.68 6 0 6 C-0.2784375 4.7934375 -0.2784375 4.7934375 -0.5625 3.5625 C-0.706875 2.716875 -0.85125 1.87125 -1 1 C-0.67 0.67 -0.34 0.34 0 0 Z " fill="#3E3E3D" transform="translate(357,46)"/>
<path d="M0 0 C1.32 1.32 2.64 2.64 4 4 C2.74458443 6.51083114 1.49936512 6.87125446 -1 8 C-1 7.34 -1 6.68 -1 6 C-1.66 5.67 -2.32 5.34 -3 5 C-1.68 4.34 -0.36 3.68 1 3 C0.67 2.01 0.34 1.02 0 0 Z " fill="#5E5E5C" transform="translate(252,319)"/>
<path d="M0 0 C2 1 2 1 4 3 C4.125 6.125 4.125 6.125 4 9 C1.47740939 7.02579865 1.0070192 6.03254358 0.3125 2.8125 C0.209375 1.884375 0.10625 0.95625 0 0 Z " fill="#454543" transform="translate(218,201)"/>
<path d="M0 0 C0.33 0.66 0.66 1.32 1 2 C0.06421005 4.35981813 -0.93347808 6.69631264 -2 9 C-2.33 9 -2.66 9 -3 9 C-3.33 6.36 -3.66 3.72 -4 1 C-2.68 0.67 -1.36 0.34 0 0 Z " fill="#4C4C4A" transform="translate(552,169)"/>
<path d="M0 0 C2 3 2 3 1.875 5.0625 C1 7 1 7 -3 9 C-2.01 6.03 -1.02 3.06 0 0 Z " fill="#484846" transform="translate(476,119)"/>
<path d="M0 0 C1 3 1 3 0.22265625 5.04296875 C-0.16019531 5.75066406 -0.54304687 6.45835938 -0.9375 7.1875 C-1.31777344 7.90292969 -1.69804688 8.61835937 -2.08984375 9.35546875 C-2.54037109 10.16951172 -2.54037109 10.16951172 -3 11 C-3.66 9.68 -4.32 8.36 -5 7 C-4.34 7 -3.68 7 -3 7 C-3 5.68 -3 4.36 -3 3 C-1.5 1.25 -1.5 1.25 0 0 Z " fill="#7F7F7D" transform="translate(603,60)"/>
<path d="M0 0 C1.9375 0.75 1.9375 0.75 4 2 C4.8125 4 4.8125 4 5 6 C4.67 6.66 4.34 7.32 4 8 C0 3.375 0 3.375 0 0 Z " fill="#797978" transform="translate(9,39)"/>
<path d="M0 0 C1.98 0 3.96 0 6 0 C5.34 0.66 4.68 1.32 4 2 C3.83312552 4.58354218 3.83312552 4.58354218 4 7 C1.49962266 4.82575883 0.56371414 3.26954202 0 0 Z " fill="#454544" transform="translate(108,30)"/>
<path d="M0 0 C3.93846154 3.32307692 3.93846154 3.32307692 4.25 6.75 C4.1675 7.4925 4.085 8.235 4 9 C0 4.5 0 4.5 0 0 Z " fill="#5F5F5E" transform="translate(193,326)"/>
<path d="M0 0 C2.99324263 1.0975223 3.84610901 1.67682892 5.25 4.625 C5.4975 5.40875 5.745 6.1925 6 7 C4.02 6.34 2.04 5.68 0 5 C0 3.35 0 1.7 0 0 Z " fill="#434340" transform="translate(339,294)"/>
<path d="M0 0 C0.66 0 1.32 0 2 0 C2.33 1.65 2.66 3.3 3 5 C1.35 5.33 -0.3 5.66 -2 6 C-2.33 5.34 -2.66 4.68 -3 4 C-2.34 4 -1.68 4 -1 4 C-0.67 2.68 -0.34 1.36 0 0 Z " fill="#484846" transform="translate(223,273)"/>
<path d="M0 0 C1.39195915 4.17587745 -0.17676781 6.13474776 -2 10 C-3.125 8.25 -3.125 8.25 -4 6 C-3.125 3.75 -3.125 3.75 -2 2 C-1.34 2 -0.68 2 0 2 C0 1.34 0 0.68 0 0 Z " fill="#656564" transform="translate(524,228)"/>
<path d="M0 0 C3.08089673 2.77280706 4.68775452 5.06326356 6 9 C3.5625 7.875 3.5625 7.875 1 6 C0.1875 2.8125 0.1875 2.8125 0 0 Z " fill="#6C6C69" transform="translate(147,154)"/>
<path d="M0 0 C1.32 0 2.64 0 4 0 C5.125 5.75 5.125 5.75 4 8 C2.68 5.36 1.36 2.72 0 0 Z " fill="#686866" transform="translate(208,188)"/>
<path d="M0 0 C1.98 0.99 3.96 1.98 6 3 C5.67 3.66 5.34 4.32 5 5 C5.39938767 7.09821215 5.39938767 7.09821215 6 9 C2.91910327 6.22719294 1.31224548 3.93673644 0 0 Z " fill="#878786" transform="translate(101,184)"/>
<path d="M0 0 C1.75 1.4375 1.75 1.4375 3 3 C1.02 3.99 1.02 3.99 -1 5 C-1.33 4.34 -1.66 3.68 -2 3 C-2.66 3 -3.32 3 -4 3 C-4 2.34 -4 1.68 -4 1 C-2.1875 0.3125 -2.1875 0.3125 0 0 Z " fill="#0A0A08" transform="translate(212,185)"/>
<path d="M0 0 C2.5 2.3125 2.5 2.3125 5 5 C5 5.99 5 6.98 5 8 C4.01 7.67 3.02 7.34 2 7 C0.8125 3.4375 0.8125 3.4375 0 0 Z " fill="#70706E" transform="translate(205,81)"/>
<path d="M0 0 C2.79872437 2.52788007 4.45773019 4.20411134 5 8 C3.68 7.67 2.36 7.34 1 7 C0.67 4.69 0.34 2.38 0 0 Z " fill="#80807F" transform="translate(362,328)"/>
<path d="M0 0 C2 1 2 1 2.8125 2.875 C3 5 3 5 1.5625 6.75 C1.046875 7.1625 0.53125 7.575 0 8 C-1.125 2.25 -1.125 2.25 0 0 Z " fill="#686867" transform="translate(508,257)"/>
<path d="M0 0 C1.65 0.99 3.3 1.98 5 3 C4.67 3.66 4.34 4.32 4 5 C2.68 5 1.36 5 0 5 C-0.66 4.34 -1.32 3.68 -2 3 C-1.34 2.01 -0.68 1.02 0 0 Z " fill="#30302E" transform="translate(195,232)"/>
<path d="M0 0 C0.99 0.33 1.98 0.66 3 1 C3.33 1.99 3.66 2.98 4 4 C3.67 4.66 3.34 5.32 3 6 C3.66 6.33 4.32 6.66 5 7 C4.34 7.66 3.68 8.32 3 9 C0 3.375 0 3.375 0 0 Z " fill="#61615F" transform="translate(335,210)"/>
<path d="M0 0 C0.66 0.33 1.32 0.66 2 1 C1.34 2.98 0.68 4.96 0 7 C-0.33 6.01 -0.66 5.02 -1 4 C-1.66 3.67 -2.32 3.34 -3 3 C-2.01 2.01 -1.02 1.02 0 0 Z " fill="#616160" transform="translate(557,156)"/>
<path d="M0 0 C2.72426311 2.35277269 3.8141763 4.62496331 5 8 C3.0625 7.375 3.0625 7.375 1 6 C0.25 2.875 0.25 2.875 0 0 Z " fill="#676764" transform="translate(246,145)"/>
<path d="M0 0 C2.475 0.99 2.475 0.99 5 2 C4.67 4.31 4.34 6.62 4 9 C2.47700477 6.06279492 1.19899698 3.0831351 0 0 Z " fill="#555554" transform="translate(299,132)"/>
</svg>
